ffmpeg version 3.4.8-0ubuntu0.2 Copyright (c) 2000-2020 the FFmpeg developers
  built with gcc 7 (Ubuntu 7.5.0-3ubuntu1~18.04)
  configuration: --prefix=/usr --extra-version=0ubuntu0.2 --toolchain=hardened --libdir=/usr/lib/x86_64-linux-gnu --incdir=/usr/include/x86_64-linux-gnu --enable-gpl --disable-stripping --enable-avresample --enable-avisynth --enable-gnutls --enable-ladspa --enable-libass --enable-libbluray --enable-libbs2b --enable-libcaca --enable-libcdio --enable-libflite --enable-libfontconfig --enable-libfreetype --enable-libfribidi --enable-libgme --enable-libgsm --enable-libmp3lame --enable-libmysofa --enable-libopenjpeg --enable-libopenmpt --enable-libopus --enable-libpulse --enable-librubberband --enable-librsvg --enable-libshine --enable-libsnappy --enable-libsoxr --enable-libspeex --enable-libssh --enable-libtheora --enable-libtwolame --enable-libvorbis --enable-libvpx --enable-libwavpack --enable-libwebp --enable-libx265 --enable-libxml2 --enable-libxvid --enable-libzmq --enable-libzvbi --enable-omx --enable-openal --enable-opengl --enable-sdl2 --enable-libdc1394 --enable-libdrm --enable-libiec61883 --enable-chromaprint --enable-frei0r --enable-libopencv --enable-libx264 --enable-shared
  libavutil      55. 78.100 / 55. 78.100
  libavcodec     57.107.100 / 57.107.100
  libavformat    57. 83.100 / 57. 83.100
  libavdevice    57. 10.100 / 57. 10.100
  libavfilter     6.107.100 /  6.107.100
  libavresample   3.  7.  0 /  3.  7.  0
  libswscale      4.  8.100 /  4.  8.100
  libswresample   2.  9.100 /  2.  9.100
  libpostproc    54.  7.100 / 54.  7.100
[rawvideo @ 0x55a637071a20] Estimating duration from bitrate, this may be inaccurate
Input #0, rawvideo, from '../../SVC-Encoder-20220109T061506Z-001/SVC-Encoder/Dataset/RollerCoaster/6f_2x2/tile_yuv/f4_t1_480x480.yuv':
  Duration: 00:00:10.00, start: 0.000000, bitrate: 82944 kb/s
    Stream #0:0: Video: rawvideo (I420 / 0x30323449), yuv420p, 480x480, 82944 kb/s, 30 tbr, 30 tbn, 30 tbc
Stream mapping:
  Stream #0:0 -> #0:0 (rawvideo (native) -> h264 (libx264))
Press [q] to stop, [?] for help
[libx264 @ 0x55a63707ec60] using cpu capabilities: MMX2 SSE2Fast LZCNT SSSE3 SSE4.2 AVX
[libx264 @ 0x55a63707ec60] profile High, level 3.0
Output #0, rawvideo, to 'RollerCoaster_f4_t1_480x480_x264_QP_32.h264':
  Metadata:
    encoder         : Lavf57.83.100
    Stream #0:0: Video: h264 (libx264), yuv420p, 480x480, q=-1--1, 30 fps, 30 tbn, 30 tbc
    Metadata:
      encoder         : Lavc57.107.100 libx264
    Side data:
      cpb: bitrate max/min/avg: 0/0/0 buffer size: 0 vbv_delay: -1
frame=  300 fps=0.0 q=38.0 LPSNR=Y:inf U:inf V:inf *:inf size=      13kB time=00:00:09.93 bitrate=  10.9kbits/s speed=25.9x    
video:13kB audio:0kB subtitle:0kB other streams:0kB global headers:0kB muxing overhead: 0.000000%
[libx264 @ 0x55a63707ec60] frame I:2     Avg QP:30.46  size:  1336  PSNR Mean Y:48.60 U:49.81 V:49.95 Avg:48.98 Global:48.83
[libx264 @ 0x55a63707ec60] frame P:77    Avg QP:33.31  size:    68  PSNR Mean Y:48.06 U:49.22 V:49.63 Avg:48.46 Global:48.38
[libx264 @ 0x55a63707ec60] frame B:221   Avg QP:37.61  size:    26  PSNR Mean Y:48.12 U:49.26 V:49.66 Avg:48.52 Global:48.47
[libx264 @ 0x55a63707ec60] consecutive B-frames:  1.3%  1.3%  0.0% 97.3%
[libx264 @ 0x55a63707ec60] mb I  I16..4: 73.1% 26.0%  0.9%
[libx264 @ 0x55a63707ec60] mb P  I16..4:  0.6%  0.3%  0.0%  P16..4:  1.8%  0.3%  0.0%  0.0%  0.0%    skip:97.0%
[libx264 @ 0x55a63707ec60] mb B  I16..4:  0.0%  0.0%  0.0%  B16..8:  0.9%  0.0%  0.0%  direct: 0.0%  skip:99.1%  L0:47.1% L1:52.9% BI: 0.0%
[libx264 @ 0x55a63707ec60] 8x8 transform intra:28.8% inter:80.6%
[libx264 @ 0x55a63707ec60] coded y,uvDC,uvAC intra: 1.5% 7.4% 0.0% inter: 0.0% 0.0% 0.0%
[libx264 @ 0x55a63707ec60] i16 v,h,dc,p: 57% 30%  6%  7%
[libx264 @ 0x55a63707ec60] i8 v,h,dc,ddl,ddr,vr,hd,vl,hu:  2%  1% 96%  0%  0%  0%  1%  0%  0%
[libx264 @ 0x55a63707ec60] i4 v,h,dc,ddl,ddr,vr,hd,vl,hu:  4% 18% 43%  1% 11%  4% 17%  0%  1%
[libx264 @ 0x55a63707ec60] i8c dc,h,v,p: 87%  8%  6%  0%
[libx264 @ 0x55a63707ec60] Weighted P-Frames: Y:0.0% UV:0.0%
[libx264 @ 0x55a63707ec60] ref P L0: 55.6% 16.0% 19.5%  8.8%
[libx264 @ 0x55a63707ec60] ref B L0: 54.9% 35.9%  9.2%
[libx264 @ 0x55a63707ec60] ref B L1: 68.2% 31.8%
[libx264 @ 0x55a63707ec60] PSNR Mean Y:48.112 U:49.251 V:49.653 Avg:48.507 Global:48.447 kb/s:10.85
